<svg xmlns="http://www.w3.org/2000/svg" width="156" height="200" viewBox="-1.906 -0.25 156 200" enable-background="new -1.906 -0.25 156 200"><g fill="#333"><path d="M66.982 17.794c-1.021.874-1.75 1.458-2.771 1.896-.438.292-.876.292-.876.144-.146-.144.147-.437.438-.582.729-.438 1.314-.876 2.188-1.605 1.021-1.021 1.898-2.189 2.627-3.501.729-1.314 1.167-2.626 1.604-4.085.292-1.459.584-2.481.584-3.941.146-1.458 0-2.188-.73-2.772-.438-.292-.729-.729-.438-1.021.291-.292.583-.292 1.313-.146.584.146 1.313.437 1.896 1.167.585.73.585 1.167.292 1.459-.145.146-.292.438-.292.877 0 .729-.146 1.896-.437 3.355-.438 2.042-1.023 3.649-2.044 5.107-1.018 1.312-2.039 2.48-3.354 3.648zm8.903-4.377c.291-.292.437-.585.291-1.606v-4.523c0-1.75.146-2.917.146-3.939 0-1.021-.146-1.604-.875-2.188-.583-.438-.875-1.022-.583-1.167.145-.294.582-.294 1.021-.147.583.146 1.02.291 1.897.729.729.583.874 1.312.583 1.75-.291.438-.291 1.168-.291 3.793-.147 2.626-.147 4.816-.147 5.545 0 .73.147.874.438.874.438 0 .876-.144 2.043-.874 1.021-.729 1.751-1.167 2.918-2.189 1.167-1.021 2.189-2.042 2.773-2.625.583-.584 1.167-1.021 1.312-.73.147.146 0 .583-.729 1.313-.875.875-2.334 2.627-3.794 3.938-1.606 1.46-2.773 2.483-3.794 3.212-1.022.729-1.605 1.022-2.042 1.022-.583 0-1.021-.438-1.314-.877-.292-.437-.146-.874.147-1.311z"/><path d="M86.389 44.204c-.291.147-.583 0-1.021 0-.438 0-1.459-.146-2.628 0-1.167 0-3.5 0-5.543.147-2.042.145-4.23.29-5.107.29-.874 0-2.334.147-3.21.292-.875.147-1.604.292-2.188.147-.73-.147-1.021-.439-1.604-.876-.438-.438-.585-.875-.438-1.167.292-.292.875-.146 1.166 0 .292.146.584.291 1.314.437 1.021.292 2.918 0 4.086-.146.874 0 2.333-.146 3.647-.146v-4.96c0-1.167-.147-1.751-.292-2.335 0-.292-.292-.583-.729-.876l-.877.146c-1.167.146-2.041.292-2.917.292-.875 0-1.459-.292-1.896-.729-.438-.438-.729-.876-.438-1.167.292-.292.73 0 1.167.145.437.146.876.292 1.605.292.731 0 2.042-.146 3.356-.292l3.5-.292c1.168-.146 2.773-.292 3.502-.438.73-.146 1.315-.146 1.897.292.585.292.877.729.73 1.167-.145.439-.438.439-.875.439-.584-.146-1.167-.292-2.042-.292-.73 0-2.188.146-3.355.292-.438 0-1.022.144-1.605.144.438.146.729.293 1.021.584.292.292.292.731.146.875-.146.146-.291.584-.291.875 0 .292-.146 1.751-.146 2.773 0 1.021-.146 1.896-.291 3.355h.145c1.606-.146 3.356-.291 4.524-.291 1.167 0 2.188-.146 2.919-.292.729-.146 1.458-.146 2.334.438.727.294.581.731.434.877z"/><path d="M74.716 74.408c1.021-1.167 1.752-2.189 2.627-3.502l-.439-.438c-.583-.729-1.167-1.167-2.188-1.751-.291-.145-.291-.437-.291-.437.146-.292.583-.146.876 0 1.021.437 1.75.875 2.625 1.458.583-1.167 1.167-2.043 1.607-3.063.582-1.314.874-2.336.874-2.626 0-.439-.146-.439-.438-.439h-2.043s-1.605.146-2.771.292c-.147 0-.292.148-.584.148-.584 1.019-1.314 2.041-2.044 3.062-.875 1.022-1.75 2.044-2.627 2.774-1.021.874-1.75 1.313-2.188 1.458-.438.292-.875.292-1.021.146-.146-.146 0-.437.291-.583.438-.291.877-.438 1.314-.875 1.021-.875 2.188-2.189 2.919-3.212.729-1.021 1.604-2.48 1.896-3.209.292-.729.729-1.896.875-2.334.147-.584 0-.876-.291-1.167-.292-.146-.292-.437-.147-.729.147-.292.584-.292 1.167 0 .585.292 1.021.582 1.168 1.312.146.584-.147 1.458-.583 2.335l3.209-.146c.73 0 1.752-.291 1.897-.438.146-.146.437-.293.584-.583.29-.292.583-.439 1.02-.292.438.146 1.022.876 1.314 1.313.292.438.145.729-.292 1.168-.583.437-.875.729-1.022 1.167-.291.582-.437 1.312-1.021 2.479-.437 1.021-.875 1.897-1.604 3.064l1.314 1.315c.729.729 1.167 2.041.291 2.625-1.02.582-1.896-.729-2.188-1.606l-.292-.729c-.583.876-1.312 1.75-2.042 2.479-.876.876-1.605 1.606-3.211 2.773-1.605 1.167-3.357 2.042-4.814 2.626-.585.292-1.315.438-1.752.584-.293.145-.583 0-.73-.146-.146-.292 0-.438.437-.583.877-.293 1.606-.585 2.335-.877.73-.438 1.897-1.022 2.626-1.605 1.168-1.018 2.19-2.041 3.357-3.208zm9.046-13.57c-.437-.438-1.021-.876-1.751-1.458-.29-.148-.437-.438-.29-.585.145-.145.29-.145.438-.145.437 0 1.021.145 1.75.437.584.292 1.459.729 1.897 1.312.292.438 0 1.021-.438 1.167-.437.001-1.168-.29-1.606-.728zm2.482-1.313c-.438-.583-1.021-.875-1.896-1.312-.292-.147-.438-.439-.292-.584.145-.145.292-.145.438-.145.438 0 1.021 0 1.75.29.584.147 1.604.73 1.896 1.168.292.438 0 1.021-.437 1.167-.292.145-1.021-.001-1.459-.584z"/><path d="M71.507 107.239c.438-.146.876-.146 2.042-.583 1.459-.583 2.626-1.167 3.794-2.042 1.021-.876 2.042-2.043 2.918-3.066.73-1.02 1.604-2.333 2.188-3.647.583-1.459.73-2.334.876-3.355.145-.875 0-1.897-.292-2.482-.292-.582-.583-1.02-.292-1.312.439-.437 1.459.146 1.899.584.436.292.729.728 1.02 1.313.292.584 0 1.167-.291 1.605-.293.438-.583 2.043-1.313 3.647-.729 1.606-1.46 2.773-2.481 4.087-1.167 1.312-2.189 2.334-3.21 3.063-.876.73-2.043 1.458-3.356 2.043-1.167.438-2.042.73-3.211.73-.292 0-.582 0-.582-.292-.293-.148-.149-.293.291-.293zm.291-12.403c-.291-.292-.582-.584-.438-.729.292-.292.877 0 1.46.292.729.582 1.167 1.312 1.459 2.042.292.876 0 1.313-.438 1.459-.437.147-.875-.146-1.022-.436-.146-.293-.292-.876-.292-1.46-.29-.584-.582-1.024-.729-1.168zm4.378-1.751c-.145-.292-.291-.73-.438-.875-.292-.292-.582-.583-.292-.729.292-.146.729 0 1.168.292.437.29 1.021.875 1.459 1.749.291.585.291 1.458-.292 1.751-.584.292-1.167 0-1.167-.729-.292-.437-.438-1.022-.438-1.459z"/><path d="M83.18 121.538c.291.438.146 1.022-.292 1.314-.438.437-.584 1.022-.876 1.751-.583 1.605-1.167 2.772-2.334 4.668-1.167 1.751-2.333 3.21-4.085 4.816-1.75 1.604-2.918 2.334-4.376 3.209-1.46.876-2.483 1.314-3.503 1.607-.583.145-.875.145-1.021 0-.146-.147.147-.438.438-.584.291-.146.73-.293 1.75-.875 1.751-.876 2.627-1.46 4.232-2.773 1.751-1.459 3.209-3.063 4.085-4.523.876-1.459 1.751-3.064 2.188-4.231.438-1.168.729-2.189.876-2.919.146-.437.291-.875 0-1.021-.147-.145-.729-.145-1.459 0-1.168.147-2.335.147-3.647.439-1.314.29-2.628.583-3.796.729-1.167.146-1.75 0-2.48-.583-.729-.438-.875-1.314-.729-1.459.293-.292.729-.146 1.022 0 .292.145.875.292 1.751.437.875.147 1.751 0 3.356-.145 1.458-.146 3.356-.292 4.231-.438.875-.146 1.313-.146 1.752-.438.438-.29.875-.438 1.459-.146.728.144 1.166.728 1.458 1.165zm3.939-.145c-.73.292-1.313.145-1.459-.146-.145-.292 0-.729.439-.875.438-.144.729-.584.729-1.021 0-.875-.729-1.312-1.459-1.167-.875.145-1.021 1.167-.583 1.896.146.292.291.729 0 .875-.292.146-.585-.146-.876-.728-.876-2.043.438-3.503 2.043-3.503 1.751.146 2.773 1.314 2.188 3.062-.001.878-.293 1.315-1.022 1.607z"/><path d="M82.159 160.06c-.147.875-.438 2.334-.438 3.356 0 .292.29.438.729.73.73.437.73 1.022.438 1.458-.292.292-1.313.146-1.606 0-.438-.145-1.02-.292-1.749-.292-.878 0-3.212.147-4.232.147-1.167 0-2.918.145-3.649.145-.729.146-1.313.146-1.896 0-.584-.145-1.023-.437-1.752-.875-.583-.439-.729-1.022-.438-1.314.293-.292.583-.292.876-.146.29.146.437.291 1.021.438.584.146 2.481.146 4.67.146 2.188 0 5.252-.146 5.543-.146.293 0 .438-.146.585-.438.146-1.021.291-1.897.582-3.21.148-1.167.293-2.773.438-3.356 0-.729-.438-.876-.875-.876-.438 0-1.604.148-2.626.148-1.022 0-3.065.29-4.377.29-1.314.147-3.211.292-4.086.292s-1.458-.438-1.897-1.022c-.438-.583-.438-1.167-.146-1.458.292-.292.729 0 1.021.147.292.292.583.437 1.167.583.729.146 2.481.146 4.378.146 1.896 0 4.085-.146 4.961-.292.874-.144 1.75-.292 2.189-.583.583-.292.875-.146 1.167.147.291.292.875.729 1.312 1.312.438.584.147 1.168 0 1.459-.291.292-.583.73-.73 1.169-.289.289-.436 1.02-.58 1.895z"/><path d="M84.64 194.933c.875 1.459 1.459 3.357.291 3.794-1.312.438-1.897-.876-2.627-2.772-.145-.292-.145-.437-.292-.583-1.02.292-3.647.876-4.96 1.167-1.459.292-4.668 1.167-5.692 1.312-1.021.147-1.604.439-2.48 1.314-.291.292-.875.584-1.167.584-.438 0-1.167-.293-1.897-.877-.728-.582-.875-1.458-.875-1.896.146-.438.583-.438 1.313-.438.728 0 1.021-.729 1.896-2.042.876-1.46 1.459-2.627 2.627-4.523 1.167-1.897 2.334-4.232 2.771-5.254.438-1.02 0-2.043-.292-2.479-.29-.439-.583-.877-.29-1.022.438-.293 1.167-.146 2.042.438.583.436.876.874 1.022 1.896 0 .729-.293 1.314-.875 2.043-.439.729-2.188 3.5-3.211 5.106-.877 1.46-2.918 4.961-3.065 5.253-.146.292 0 .437.292.437s1.021-.145 2.188-.29c1.167-.293 4.086-.73 5.545-.877 1.314-.292 3.21-.583 4.816-.874-.438-.878-1.021-1.607-1.75-2.336-.438-.438-.729-.73-.438-.875.292-.293.583-.146 1.458.437 1.605 1.023 2.919 2.19 3.65 3.357z"/></g><path fill="#333" d="M89.599 92.21l-.583-1.167c1.46 1.75 2.771 2.479 4.085 2.334l.583 1.167c-1.166.147-2.625-.73-4.085-2.334zm45.964 17.072c-15.758 2.627-24.659 4.231-26.848 4.668-10.36 2.189-15.905 3.648-16.343 4.232l-1.458-.438c-.437-.73 3.063-1.896 10.359-3.503l-.146-.437c.292-.438.582-.876.875-1.021.292-.292.584-.583 1.022-.875.874-.73 1.75-1.315 2.625-1.897l1.022.875c-.584.292-1.167.584-1.896 1.166l-.876.73c-.583.437-1.02.875-1.312 1.167 9.193-1.896 20.281-3.5 32.976-4.667zm-42.024-11.966c0 1.604.438 3.356 1.314 5.254-1.314-2.189-1.898-4.232-1.898-6.421l.584 1.167zm12.258 12.549l-.438.292c-.876-.875-1.46-1.604-1.46-2.189-4.23-.145-7.295-1.896-9.045-5.398 1.75 2.772 4.667 4.231 8.461 4.377 2.772.146 5.253-.292 7.442-1.167 1.167-.438 2.918-1.46 5.106-2.919-2.333-.438-4.522-1.314-6.711-2.625-.876.729-1.606 1.167-1.896 1.167-.73.144-1.459.144-2.189.144-1.021 0-1.752-.144-2.188-.582l-.584-1.022c.437.438 1.167.584 2.188.584.73 0 1.605-.146 2.336-.291.438-.147.876-.293 1.458-.585-1.312-.874-2.918-2.187-4.961-4.085-1.75-1.604-2.917-2.625-3.646-2.918-1.459-.585-2.773-.875-4.085-.875-.876 0-1.606.145-2.335.437.729-.875 1.75-1.167 2.918-1.167.876 0 1.751.145 2.625.583.73.292 2.189 1.459 4.233 3.354 2.188 2.045 4.085 3.503 5.69 4.525.875-.437 1.897-1.022 3.209-1.751-1.167 1.167-2.042 1.751-2.479 2.189 2.188 1.167 4.377 1.896 6.711 2.044l.292.583c1.896-.876 4.523-1.605 7.588-2.334-2.044.582-4.232 1.751-6.714 3.209-2.771 1.75-4.669 2.919-5.69 3.356-2.335 1.022-4.815 1.459-7.734 1.459.876.437 1.46 1.167 1.898 1.605zm-9.776-15.321c-.584 0-.876-.292-.876-.875 0-.584.292-.729.876-.729.583 0 .729.292.729.729 0 .583-.147.875-.729.875zm39.833 12.549c.73-.876 1.605-1.897 2.481-3.21.438-.584.729-1.167 1.021-1.751l1.312-2.333c.292-.729.73-1.606 1.022-2.918.146 2.479-.292 4.523-1.167 6.126-1.166 1.751-2.771 3.21-4.669 4.086zm11.675 11.09c-.876-1.023-1.605-1.752-2.189-2.19l-2.188-1.604c-1.897-1.46-3.648-2.48-5.108-3.21 1.459 0 2.773.292 4.232.875l1.75.876c1.459 1.312 2.627 3.063 3.503 5.253zm-6.859-10.215c.584-.437 1.458-.875 2.773-1.313l1.751-.73c1.02-.437 2.479-.875 4.376-1.167 2.189-.437 3.793-.729 4.523-1.021-2.043 1.167-3.793 2.043-5.398 2.771-.731.293-1.314.439-1.752.73-2.188.438-4.376.73-6.273.73z"/></svg>