<svg xmlns="http://www.w3.org/2000/svg" width="29" height="186"><g fill="#333"><path d="M22.34 6.64c.3.56.07 1.16-.37 1.64-.49.49-.78 1.16-1.12 2.09-.71 1.98-1.38 3.39-2.72 5.52-1.38 2.13-2.83 3.84-4.92 5.82-2.09 1.98-3.47 2.84-5.26 3.8-1.83.97-3.06 1.57-4.25 1.94-.67.19-1.12.19-1.23-.04-.11-.22.11-.49.52-.63.37-.15.86-.45 2.16-1.12 2.13-1.08 3.21-1.75 5.11-3.32 2.09-1.72 3.81-3.73 4.89-5.48 1.12-1.72 2.16-3.73 2.65-5.04.49-1.34.82-2.69 1.04-3.47.19-.56.3-1.04.04-1.27-.22-.19-.93-.07-1.75 0-1.38.08-2.91.19-4.48.49s-3.22.75-4.56.93c-1.34.23-2.13-.03-2.99-.63-.82-.56-1.11-1.49-.78-1.79.41-.3.86-.22 1.31 0 .41.15 1.08.37 2.13.45 1.12.07 2.2-.04 4.03-.19 1.72-.19 4.07-.45 5.15-.6 1.04-.11 1.57-.19 2.16-.52.52-.3 1.04-.52 1.72-.15.66.34 1.22 1.01 1.52 1.57zm4.74-.26c-.82.37-1.53.15-1.72-.19-.19-.37 0-.82.52-1.01.56-.19.93-.63.93-1.19 0-1.12-.86-1.53-1.72-1.34-1 .18-1.18 1.38-.7 2.35.19.41.3.86.04 1.04-.3.15-.75-.19-1.08-.93-1.12-2.43.6-4.22 2.5-4.1 2.09.11 3.28 1.49 2.69 3.73-.19.71-.64 1.23-1.46 1.64z"/><path d="M23.86 46.97c.45.52.15 1.01-.22 1.42-.37.37-.71.78-.82 1.16-.15.45-.48 2.24-.89 4.22-.3 1.53-.82 4.51-1.04 5.67.26.04.52.11.71.22.82.48.97 1.16.75 1.53-.22.34-.93.41-2.5.41-1.49-.04-4.4-.19-6.45-.15-1.72.04-3.47.11-4.63.15 0 .52.04.93 0 1.12 0 .82-.52 1.72-1.16 1.72-.67 0-.63-.78-.75-2.2-.11-1.49-.26-3.36-.37-5.48-.11-2.16-.37-5.22-.49-6.53-.11-1.27-.63-1.94-1.27-2.31-.63-.34-.97-.71-.86-1.27.07-.37.41-.52 1.19-.49.97 0 1.72.26 2.35.82.52.45.93.97.97 1.42 1.01-.15 2.61-.34 3.95-.48 2.09-.22 5-.6 5.9-.75.89-.11 1.53-.19 2.09-.71.56-.56.9-.93 1.72-.67.78.21 1.41.7 1.82 1.18zm-5.41 12.42c.37-.04.78-.07 1.19-.07.3-3.47.56-5.63.67-7.28.08-.89.15-1.98.15-2.42 0-.41-.26-.9-.71-.86-.48.04-3.17.19-4.7.34-1.6.15-3.17.34-4.33.41-.67.08-1.72.22-2.46.34 0 .26 0 .56.04.9.11 1.42.26 4.55.34 6.42.04.9.07 2.09.07 3.1.97-.08 2.91-.22 4.22-.34 1.79-.2 4.4-.42 5.52-.54z"/><path d="M12.12 99.3c1.31-1.38 2.16-2.65 3.1-4.25-.15-.22-.34-.45-.49-.6-.78-.9-1.46-1.38-2.61-2.05-.34-.22-.37-.49-.3-.6.22-.3.75-.15 1.08 0 1.27.56 2.2 1.08 3.13 1.79.75-1.34 1.42-2.46 1.9-3.66.67-1.61 1.01-2.76 1.04-3.21.04-.52-.22-.52-.56-.52-.71 0-1.31 0-2.5.08-1.23.07-2.01.19-3.32.45l-.67.11c-.71 1.31-1.57 2.54-2.54 3.66-1.04 1.27-2.01 2.46-3.17 3.4-1.19.97-2.13 1.57-2.72 1.83-.6.26-1.01.41-1.16.15-.19-.26.07-.56.41-.75.56-.34.97-.6 1.6-1.16 1.23-1.12 2.61-2.61 3.47-3.88.86-1.27 1.87-2.95 2.31-3.88.45-.9.93-2.24 1.04-2.87.15-.63-.04-1.16-.45-1.42-.34-.26-.37-.6-.22-.82.19-.3.71-.3 1.38-.04.67.22 1.31.75 1.46 1.64.07.63-.22 1.72-.67 2.76 1.16 0 2.72-.15 3.81-.26.97-.08 2.09-.34 2.31-.49.26-.19.49-.45.71-.67.3-.26.71-.49 1.31-.34.56.15 1.3.97 1.6 1.49.26.52.22.89-.45 1.42-.67.52-.97.82-1.27 1.49-.3.67-.63 1.64-1.19 2.95-.48 1.19-1.04 2.28-1.94 3.73.56.48 1.12 1.01 1.57 1.49.82.9 1.46 2.5.3 3.21-1.19.71-2.28-.82-2.72-1.9-.11-.3-.26-.56-.41-.86-.75 1.01-1.6 2.05-2.5 2.98-1.01 1.12-2.01 1.98-3.92 3.36-1.9 1.42-3.95 2.42-5.86 3.21-.71.34-1.53.6-2.13.75-.41.11-.78.08-.86-.07-.11-.3 0-.48.63-.67 1.04-.37 1.87-.71 2.76-1.16.93-.45 2.28-1.23 3.21-1.9 1.85-1.34 3.19-2.5 4.5-3.92zm10.93-16.34c-.56-.56-1.19-1.12-2.16-1.75-.3-.19-.45-.45-.3-.71.11-.19.45-.15.6-.15.63 0 1.3.19 2.05.45.78.3 1.87.89 2.24 1.53.34.6 0 1.19-.56 1.34-.49.15-1.35-.15-1.87-.71zm2.95-1.53c-.56-.67-1.19-1.12-2.28-1.57-.33-.15-.49-.48-.33-.71.11-.15.45-.15.6-.15.6 0 1.27.07 2.09.34.78.22 1.9.78 2.28 1.42.37.6.07 1.19-.48 1.34-.5.19-1.4-.11-1.88-.67z"/><path d="M23.16 125.82c.48.41.67.78.6 1.08-.08.3-.45.63-.97.97-.6.3-1.01 1.38-1.46 2.35-.6 1.3-1.6 2.95-3.13 5.04-1.49 2.05-2.61 3.32-4.03 4.63-1.42 1.31-3.25 2.72-5.45 3.8-2.16 1.12-3.32 1.72-5.71 2.54-.45.15-.78.04-.86-.22-.04-.22.26-.37.56-.49 1.79-.63 2.84-1.19 4.51-2.24 1.64-1.04 3.4-2.54 4.55-3.58 1.6-1.38 3.02-3.1 4.1-4.7 1.12-1.61 1.83-2.91 2.54-4.44.71-1.6.86-2.61.97-3.02.11-.41 0-.82-.11-.93-.15-.08-.63-.08-.82-.08h-3.21c-.52.04-1.31.04-1.83.04-.34.71-.78 1.46-1.19 2.13-1.16 1.83-2.31 3.1-3.84 4.4-1.53 1.31-2.76 2.01-4.59 2.76-.3.11-.67.11-.78-.11-.11-.26.22-.49.48-.63 1.49-.82 2.69-1.68 3.88-2.84 1.12-1.12 2.35-2.72 3.1-3.99.75-1.23 1.27-2.42 1.6-3.39.37-.93.37-1.57.34-1.98-.04-.37-.41-.78-.75-1.08-.34-.3-.56-.82-.3-1.08.3-.34.93-.15 1.6.07.67.26 1.42.63 1.79 1.04.41.45.3 1.12 0 1.98-.07.3-.34.75-.6 1.34.26.04.63.11.97.15.75.08 1.68.08 2.57 0 .9-.07 1.46-.37 2.02-.71.52-.3 1.08-.3 1.79.04.77.33 1.25.74 1.66 1.15z"/><path d="M3.35 184.8c.67-.11 1.34-.22 2.84-.78 2.13-.75 3.81-1.68 5.33-2.91 1.53-1.19 2.91-2.91 4.03-4.4 1.12-1.46 2.35-3.32 3.1-5.22.75-1.94 1.08-3.39 1.3-4.7.22-1.34-.15-2.72-.56-3.47-.45-.75-.78-1.49-.41-1.83.67-.63 2.05.26 2.65.71.63.52 1.16 1.08 1.53 1.87.41.78 0 1.64-.34 2.28-.34.67-.86 2.95-1.9 5.19-1.01 2.2-2.2 3.99-3.62 5.82-1.57 1.98-3.13 3.4-4.48 4.37-1.34 1.04-2.91 2.01-4.81 2.8-1.64.67-2.95 1.08-4.51 1.16-.45 0-.9-.08-.9-.37 0-.33.19-.41.75-.52zm.34-17.61c-.3-.3-.78-.82-.52-1.08.41-.45 1.19-.11 1.94.49 1.04.86 1.72 1.83 2.13 2.98.41 1.19-.07 1.98-.71 2.09-.63.15-1.19-.22-1.49-.71-.26-.45-.3-1.19-.45-1.98-.16-.78-.6-1.53-.9-1.79zm6.19-2.31c-.15-.56-.34-1.01-.63-1.34-.3-.3-.78-.67-.49-.97.37-.34 1.08.07 1.64.48.48.37 1.34 1.16 1.94 2.5.3.71.45 2.09-.37 2.39-.86.37-1.64-.04-1.75-.93-.12-.79-.19-1.65-.34-2.13z"/></g></svg>