<svg xmlns="http://www.w3.org/2000/svg" width="28" height="107"><g fill="#333"><path d="M21.07 6.64c.3.56.07 1.16-.37 1.64-.48.48-.78 1.16-1.12 2.09-.71 1.98-1.38 3.4-2.72 5.52-1.38 2.13-2.83 3.84-4.92 5.82-2.09 1.98-3.47 2.84-5.26 3.81-1.83.97-3.06 1.57-4.25 1.94-.67.19-1.12.19-1.23-.04-.11-.22.11-.49.52-.63.37-.15.86-.45 2.16-1.12 2.16-1.08 3.21-1.75 5.11-3.32 2.09-1.72 3.8-3.73 4.89-5.48 1.12-1.72 2.16-3.73 2.65-5.04.48-1.34.82-2.69 1.04-3.47.19-.56.3-1.04.04-1.27-.22-.19-.93-.08-1.75 0-1.38.08-2.91.19-4.48.49-1.57.29-3.21.74-4.56.92-1.34.23-2.12-.03-2.98-.63-.82-.56-1.12-1.49-.75-1.79.34-.34.82-.22 1.27 0 .45.15 1.08.37 2.13.45 1.12.07 2.2-.04 4.03-.19 1.75-.19 4.07-.45 5.15-.6 1.04-.11 1.57-.19 2.16-.52.52-.3 1.04-.52 1.72-.15.67.34 1.23 1.01 1.52 1.57zm.97-1.72c-.52-.56-1.19-1.08-2.16-1.72-.3-.19-.45-.49-.3-.75.11-.15.45-.15.63-.11.6 0 1.27.19 2.01.45.78.26 1.9.89 2.24 1.49.37.63.04 1.23-.52 1.38-.52.16-1.34-.18-1.9-.74zm2.95-1.53c-.56-.63-1.16-1.08-2.28-1.53-.34-.15-.45-.48-.34-.71.11-.19.45-.15.6-.15.63-.04 1.31.07 2.09.34.78.22 1.87.75 2.28 1.38s.07 1.23-.45 1.38c-.52.19-1.41-.11-1.9-.71zM22.6 46.9c.45.52.15 1.01-.22 1.42-.37.37-.71.78-.82 1.16-.15.45-.49 2.24-.9 4.22-.3 1.53-.82 4.51-1.04 5.67.26.04.52.11.71.22.82.48.97 1.16.75 1.53-.22.34-.93.41-2.5.41-1.49-.04-4.4-.19-6.45-.15-1.72.04-3.47.11-4.63.15 0 .52.04.93 0 1.12 0 .82-.52 1.72-1.16 1.72-.67 0-.63-.78-.75-2.2-.11-1.49-.26-3.36-.37-5.48-.11-2.16-.37-5.22-.49-6.53-.11-1.27-.63-1.94-1.27-2.31-.63-.34-.97-.71-.86-1.27.08-.37.41-.52 1.19-.49.97 0 1.72.26 2.35.82.52.45.93.97.97 1.42 1.01-.15 2.61-.34 3.95-.48 2.09-.22 5-.6 5.89-.75.9-.11 1.53-.19 2.09-.71.56-.56.89-.93 1.72-.67.79.21 1.43.69 1.84 1.18zm-5.41 12.42c.37-.04.78-.07 1.19-.07.3-3.47.56-5.63.67-7.28.07-.89.15-1.98.15-2.42 0-.41-.26-.9-.71-.86-.48.04-3.17.19-4.7.34-1.6.15-3.17.34-4.33.41-.67.07-1.71.22-2.46.33 0 .26 0 .56.04.9.11 1.42.26 4.55.34 6.42.04.9.08 2.09.08 3.1.97-.08 2.91-.22 4.22-.34 1.78-.19 4.39-.42 5.51-.53zM22.01 86.29c.45.41.6.78.56 1.08-.04.34-.45.63-.97.97-.56.3-.97 1.38-1.42 2.39-.63 1.31-1.64 2.95-3.17 5s-2.57 3.32-3.99 4.62c-1.42 1.31-3.28 2.72-5.45 3.81-2.16 1.12-3.36 1.75-5.75 2.54-.41.15-.78.04-.82-.22-.04-.22.26-.37.56-.48 1.79-.63 2.84-1.19 4.51-2.24 1.64-1.04 3.36-2.5 4.55-3.58 1.57-1.38 3.02-3.1 4.1-4.7 1.08-1.6 1.83-2.91 2.5-4.44.71-1.6.9-2.61.97-2.98.11-.45 0-.86-.07-.97-.15-.04-.63-.07-.9-.07-.56 0-2.31 0-3.13.04h-1.83c-.37.71-.78 1.46-1.19 2.13-1.19 1.87-2.35 3.13-3.88 4.4-1.53 1.31-2.76 2.05-4.55 2.76-.34.11-.71.11-.82-.11-.11-.26.26-.48.52-.63 1.49-.82 2.69-1.68 3.81-2.83 1.19-1.12 2.42-2.72 3.17-3.99.75-1.23 1.27-2.39 1.6-3.4.34-.93.34-1.57.3-1.98-.04-.37-.41-.78-.75-1.08-.26-.34-.56-.78-.3-1.08.3-.34.97-.15 1.64.11.67.22 1.38.6 1.79 1.01.41.45.3 1.12 0 1.98l-.6 1.38c.26 0 .63.07.97.11.75.07 1.68.07 2.54 0 .89-.08 1.45-.37 2.01-.71.56-.3 1.08-.3 1.83.04s1.21.67 1.66 1.12zm-1.31-2.5c-.52-.56-1.23-1.08-2.16-1.72-.34-.19-.48-.45-.34-.75.15-.15.45-.11.67-.11.56 0 1.23.19 2.01.45.75.3 1.9.9 2.24 1.49.37.63 0 1.23-.56 1.38-.52.15-1.3-.18-1.86-.74zm2.95-1.5c-.56-.71-1.19-1.08-2.31-1.57-.3-.11-.49-.49-.34-.71.15-.19.45-.15.63-.15.6-.04 1.27.11 2.05.34s1.9.75 2.28 1.42c.37.6.08 1.19-.41 1.38-.56.19-1.42-.15-1.9-.71z"/></g></svg>